<svg xmlns="http://www.w3.org/2000/svg" width="185" height="59"><g transform="translate(.002 .214)"><rect data-name="Rectangle 57" width="185" height="59" rx="5" transform="translate(-.002 -.214)"/><g data-name="Group 24" fill="#fff"><g data-name="Group 23" font-size="13"><text data-name="Available On" transform="translate(61.262 24.13)" font-family="Poppins-Regular, Poppins"><tspan x="0" y="0">Available On</tspan></text><text data-name="App Store" transform="translate(61.262 44.051)" font-family="Poppins-Bold, Poppins" font-weight="700"><tspan x="0" y="0">App Store</tspan></text></g><path d="M27.801 25.556c-2.827 4.906-1.03 12.35 2.1 16.864 1.56 2.257 3.14 4.282 5.3 4.282h.124a6.55 6.55 0 002.462-.656 6.741 6.741 0 012.916-.691 6.34 6.34 0 012.776.669 5.88 5.88 0 002.659.638c2.437-.045 3.934-2.231 5.254-4.16a18.439 18.439 0 002.3-4.715l.009-.03a.274.274 0 00-.146-.336l-.02-.009a6.986 6.986 0 01-4.234-6.4 7.192 7.192 0 013.4-6.012l.027-.017a.274.274 0 00.078-.385 7.909 7.909 0 00-6.221-3.378 5.38 5.38 0 00-.543-.027 10.844 10.844 0 00-3.9.975 6.275 6.275 0 01-1.87.559 6.119 6.119 0 01-1.935-.566 9.374 9.374 0 00-3.41-.866h-.087a8.361 8.361 0 00-7.039 4.261z"/><path d="M46.588 13.264a7.635 7.635 0 00-5.04 2.586 7.153 7.153 0 00-1.811 5.3.274.274 0 00.25.237c.117.009.236.014.354.014a6.458 6.458 0 004.758-2.44 7.542 7.542 0 001.773-5.453.276.276 0 00-.284-.244z"/></g></g></svg>