<svg xmlns="http://www.w3.org/2000/svg" width="303" height="255"><g opacity=".29" fill="#fff"><g data-name="Group 8039" opacity=".5"><g data-name="Group 8023" transform="translate(0 .24)"><circle data-name="Ellipse 212" cx="4.5" cy="4.5" r="4.5" transform="translate(0 -.24)"/><circle data-name="Ellipse 214" cx="4.5" cy="4.5" r="4.5" transform="translate(33 -.24)"/><circle data-name="Ellipse 216" cx="4.5" cy="4.5" r="4.5" transform="translate(66 -.24)"/><ellipse data-name="Ellipse 218" cx="5" cy="4.5" rx="5" ry="4.5" transform="translate(98 -.24)"/><circle data-name="Ellipse 220" cx="4.5" cy="4.5" r="4.5" transform="translate(131 -.24)"/><circle data-name="Ellipse 213" cx="4.5" cy="4.5" r="4.5" transform="translate(17 -.24)"/><ellipse data-name="Ellipse 215" cx="4" cy="4.5" rx="4" ry="4.5" transform="translate(50 -.24)"/><circle data-name="Ellipse 217" cx="4.5" cy="4.5" r="4.5" transform="translate(82 -.24)"/><circle data-name="Ellipse 219" cx="4.5" cy="4.5" r="4.5" transform="translate(114 -.24)"/><circle data-name="Ellipse 221" cx="4.5" cy="4.5" r="4.5" transform="translate(147 -.24)"/></g><g data-name="Group 8031" transform="translate(0 131.28)"><ellipse data-name="Ellipse 212" cx="4.5" cy="5" rx="4.5" ry="5" transform="translate(0 -.28)"/><ellipse data-name="Ellipse 214" cx="4.5" cy="5" rx="4.5" ry="5" transform="translate(33 -.28)"/><ellipse data-name="Ellipse 216" cx="4.5" cy="5" rx="4.5" ry="5" transform="translate(66 -.28)"/><circle data-name="Ellipse 218" cx="5" cy="5" r="5" transform="translate(98 -.28)"/><ellipse data-name="Ellipse 220" cx="4.5" cy="5" rx="4.5" ry="5" transform="translate(131 -.28)"/><ellipse data-name="Ellipse 213" cx="4.5" cy="5" rx="4.5" ry="5" transform="translate(17 -.28)"/><ellipse data-name="Ellipse 215" cx="4" cy="5" rx="4" ry="5" transform="translate(50 -.28)"/><ellipse data-name="Ellipse 217" cx="4.5" cy="5" rx="4.5" ry="5" transform="translate(82 -.28)"/><ellipse data-name="Ellipse 219" cx="4.5" cy="5" rx="4.5" ry="5" transform="translate(114 -.28)"/><ellipse data-name="Ellipse 221" cx="4.5" cy="5" rx="4.5" ry="5" transform="translate(147 -.28)"/></g><g data-name="Group 8024" transform="translate(0 17.04)"><ellipse data-name="Ellipse 212" cx="4.5" cy="4" rx="4.5" ry="4" transform="translate(0 -.04)"/><ellipse data-name="Ellipse 214" cx="4.5" cy="4" rx="4.5" ry="4" transform="translate(33 -.04)"/><ellipse data-name="Ellipse 216" cx="4.5" cy="4" rx="4.5" ry="4" transform="translate(66 -.04)"/><ellipse data-name="Ellipse 218" cx="5" cy="4" rx="5" ry="4" transform="translate(98 -.04)"/><ellipse data-name="Ellipse 220" cx="4.5" cy="4" rx="4.5" ry="4" transform="translate(131 -.04)"/><ellipse data-name="Ellipse 213" cx="4.5" cy="4" rx="4.5" ry="4" transform="translate(17 -.04)"/><circle data-name="Ellipse 215" cx="4" cy="4" r="4" transform="translate(50 -.04)"/><ellipse data-name="Ellipse 217" cx="4.5" cy="4" rx="4.5" ry="4" transform="translate(82 -.04)"/><ellipse data-name="Ellipse 219" cx="4.5" cy="4" rx="4.5" ry="4" transform="translate(114 -.04)"/><ellipse data-name="Ellipse 221" cx="4.5" cy="4" rx="4.5" ry="4" transform="translate(147 -.04)"/></g><g data-name="Group 8032" transform="translate(0 147.24)"><circle data-name="Ellipse 212" cx="4.5" cy="4.5" r="4.5" transform="translate(0 -.24)"/><circle data-name="Ellipse 214" cx="4.5" cy="4.5" r="4.5" transform="translate(33 -.24)"/><circle data-name="Ellipse 216" cx="4.5" cy="4.5" r="4.5" transform="translate(66 -.24)"/><ellipse data-name="Ellipse 218" cx="5" cy="4.5" rx="5" ry="4.5" transform="translate(98 -.24)"/><circle data-name="Ellipse 220" cx="4.5" cy="4.5" r="4.5" transform="translate(131 -.24)"/><circle data-name="Ellipse 213" cx="4.5" cy="4.5" r="4.5" transform="translate(17 -.24)"/><ellipse data-name="Ellipse 215" cx="4" cy="4.5" rx="4" ry="4.5" transform="translate(50 -.24)"/><circle data-name="Ellipse 217" cx="4.5" cy="4.5" r="4.5" transform="translate(82 -.24)"/><circle data-name="Ellipse 219" cx="4.5" cy="4.5" r="4.5" transform="translate(114 -.24)"/><circle data-name="Ellipse 221" cx="4.5" cy="4.5" r="4.5" transform="translate(147 -.24)"/></g><g data-name="Group 8025" transform="translate(0 33)"><circle data-name="Ellipse 212" cx="4.5" cy="4.5" r="4.5"/><circle data-name="Ellipse 214" cx="4.5" cy="4.5" r="4.5" transform="translate(33)"/><circle data-name="Ellipse 216" cx="4.5" cy="4.5" r="4.5" transform="translate(66)"/><ellipse data-name="Ellipse 218" cx="5" cy="4.5" rx="5" ry="4.5" transform="translate(98)"/><circle data-name="Ellipse 220" cx="4.5" cy="4.5" r="4.5" transform="translate(131)"/><circle data-name="Ellipse 213" cx="4.5" cy="4.5" r="4.5" transform="translate(17)"/><ellipse data-name="Ellipse 215" cx="4" cy="4.5" rx="4" ry="4.5" transform="translate(50)"/><circle data-name="Ellipse 217" cx="4.5" cy="4.5" r="4.5" transform="translate(82)"/><circle data-name="Ellipse 219" cx="4.5" cy="4.5" r="4.5" transform="translate(114)"/><circle data-name="Ellipse 221" cx="4.5" cy="4.5" r="4.5" transform="translate(147)"/></g><g data-name="Group 8033" transform="translate(0 164.04)"><circle data-name="Ellipse 212" cx="4.5" cy="4.5" r="4.5" transform="translate(0 -.04)"/><circle data-name="Ellipse 214" cx="4.5" cy="4.5" r="4.5" transform="translate(33 -.04)"/><circle data-name="Ellipse 216" cx="4.5" cy="4.5" r="4.5" transform="translate(66 -.04)"/><ellipse data-name="Ellipse 218" cx="5" cy="4.5" rx="5" ry="4.5" transform="translate(98 -.04)"/><circle data-name="Ellipse 220" cx="4.5" cy="4.5" r="4.5" transform="translate(131 -.04)"/><circle data-name="Ellipse 213" cx="4.5" cy="4.5" r="4.5" transform="translate(17 -.04)"/><ellipse data-name="Ellipse 215" cx="4" cy="4.5" rx="4" ry="4.5" transform="translate(50 -.04)"/><circle data-name="Ellipse 217" cx="4.5" cy="4.5" r="4.5" transform="translate(82 -.04)"/><circle data-name="Ellipse 219" cx="4.5" cy="4.5" r="4.5" transform="translate(114 -.04)"/><circle data-name="Ellipse 221" cx="4.5" cy="4.5" r="4.5" transform="translate(147 -.04)"/></g><g data-name="Group 8026" transform="translate(0 49.8)"><ellipse data-name="Ellipse 212" cx="4.5" cy="4" rx="4.5" ry="4" transform="translate(0 .2)"/><ellipse data-name="Ellipse 214" cx="4.5" cy="4" rx="4.5" ry="4" transform="translate(33 .2)"/><ellipse data-name="Ellipse 216" cx="4.5" cy="4" rx="4.5" ry="4" transform="translate(66 .2)"/><ellipse data-name="Ellipse 218" cx="5" cy="4" rx="5" ry="4" transform="translate(98 .2)"/><ellipse data-name="Ellipse 220" cx="4.5" cy="4" rx="4.5" ry="4" transform="translate(131 .2)"/><ellipse data-name="Ellipse 213" cx="4.5" cy="4" rx="4.5" ry="4" transform="translate(17 .2)"/><circle data-name="Ellipse 215" cx="4" cy="4" r="4" transform="translate(50 .2)"/><ellipse data-name="Ellipse 217" cx="4.5" cy="4" rx="4.5" ry="4" transform="translate(82 .2)"/><ellipse data-name="Ellipse 219" cx="4.5" cy="4" rx="4.5" ry="4" transform="translate(114 .2)"/><ellipse data-name="Ellipse 221" cx="4.5" cy="4" rx="4.5" ry="4" transform="translate(147 .2)"/></g><g data-name="Group 8034" transform="translate(0 180)"><circle data-name="Ellipse 212" cx="4.5" cy="4.5" r="4.5"/><circle data-name="Ellipse 214" cx="4.5" cy="4.5" r="4.5" transform="translate(33)"/><circle data-name="Ellipse 216" cx="4.5" cy="4.5" r="4.5" transform="translate(66)"/><ellipse data-name="Ellipse 218" cx="5" cy="4.5" rx="5" ry="4.5" transform="translate(98)"/><circle data-name="Ellipse 220" cx="4.5" cy="4.5" r="4.5" transform="translate(131)"/><circle data-name="Ellipse 213" cx="4.5" cy="4.5" r="4.5" transform="translate(17)"/><ellipse data-name="Ellipse 215" cx="4" cy="4.5" rx="4" ry="4.5" transform="translate(50)"/><circle data-name="Ellipse 217" cx="4.5" cy="4.5" r="4.5" transform="translate(82)"/><circle data-name="Ellipse 219" cx="4.5" cy="4.5" r="4.5" transform="translate(114)"/><circle data-name="Ellipse 221" cx="4.5" cy="4.5" r="4.5" transform="translate(147)"/></g><g data-name="Group 8027" transform="translate(0 65.76)"><circle data-name="Ellipse 212" cx="4.5" cy="4.5" r="4.5" transform="translate(0 .24)"/><circle data-name="Ellipse 214" cx="4.5" cy="4.5" r="4.5" transform="translate(33 .24)"/><circle data-name="Ellipse 216" cx="4.5" cy="4.5" r="4.5" transform="translate(66 .24)"/><ellipse data-name="Ellipse 218" cx="5" cy="4.5" rx="5" ry="4.5" transform="translate(98 .24)"/><circle data-name="Ellipse 220" cx="4.5" cy="4.5" r="4.5" transform="translate(131 .24)"/><circle data-name="Ellipse 213" cx="4.5" cy="4.5" r="4.5" transform="translate(17 .24)"/><ellipse data-name="Ellipse 215" cx="4" cy="4.5" rx="4" ry="4.5" transform="translate(50 .24)"/><circle data-name="Ellipse 217" cx="4.5" cy="4.5" r="4.5" transform="translate(82 .24)"/><circle data-name="Ellipse 219" cx="4.5" cy="4.5" r="4.5" transform="translate(114 .24)"/><circle data-name="Ellipse 221" cx="4.5" cy="4.5" r="4.5" transform="translate(147 .24)"/></g><g data-name="Group 8035" transform="translate(0 196.8)"><ellipse data-name="Ellipse 212" cx="4.5" cy="4" rx="4.5" ry="4" transform="translate(0 .2)"/><ellipse data-name="Ellipse 214" cx="4.5" cy="4" rx="4.5" ry="4" transform="translate(33 .2)"/><ellipse data-name="Ellipse 216" cx="4.5" cy="4" rx="4.5" ry="4" transform="translate(66 .2)"/><ellipse data-name="Ellipse 218" cx="5" cy="4" rx="5" ry="4" transform="translate(98 .2)"/><ellipse data-name="Ellipse 220" cx="4.5" cy="4" rx="4.5" ry="4" transform="translate(131 .2)"/><ellipse data-name="Ellipse 213" cx="4.5" cy="4" rx="4.5" ry="4" transform="translate(17 .2)"/><circle data-name="Ellipse 215" cx="4" cy="4" r="4" transform="translate(50 .2)"/><ellipse data-name="Ellipse 217" cx="4.5" cy="4" rx="4.5" ry="4" transform="translate(82 .2)"/><ellipse data-name="Ellipse 219" cx="4.5" cy="4" rx="4.5" ry="4" transform="translate(114 .2)"/><ellipse data-name="Ellipse 221" cx="4.5" cy="4" rx="4.5" ry="4" transform="translate(147 .2)"/></g><g data-name="Group 8028" transform="translate(0 81.72)"><circle data-name="Ellipse 212" cx="4.5" cy="4.5" r="4.5" transform="translate(0 .28)"/><circle data-name="Ellipse 214" cx="4.5" cy="4.5" r="4.5" transform="translate(33 .28)"/><circle data-name="Ellipse 216" cx="4.5" cy="4.5" r="4.5" transform="translate(66 .28)"/><ellipse data-name="Ellipse 218" cx="5" cy="4.5" rx="5" ry="4.5" transform="translate(98 .28)"/><circle data-name="Ellipse 220" cx="4.5" cy="4.5" r="4.5" transform="translate(131 .28)"/><circle data-name="Ellipse 213" cx="4.5" cy="4.5" r="4.5" transform="translate(17 .28)"/><ellipse data-name="Ellipse 215" cx="4" cy="4.5" rx="4" ry="4.5" transform="translate(50 .28)"/><circle data-name="Ellipse 217" cx="4.5" cy="4.5" r="4.5" transform="translate(82 .28)"/><circle data-name="Ellipse 219" cx="4.5" cy="4.5" r="4.5" transform="translate(114 .28)"/><circle data-name="Ellipse 221" cx="4.5" cy="4.5" r="4.5" transform="translate(147 .28)"/></g><g data-name="Group 8036" transform="translate(0 212.76)"><circle data-name="Ellipse 212" cx="4.5" cy="4.5" r="4.5" transform="translate(0 .24)"/><circle data-name="Ellipse 214" cx="4.5" cy="4.5" r="4.5" transform="translate(33 .24)"/><circle data-name="Ellipse 216" cx="4.5" cy="4.5" r="4.5" transform="translate(66 .24)"/><ellipse data-name="Ellipse 218" cx="5" cy="4.5" rx="5" ry="4.5" transform="translate(98 .24)"/><circle data-name="Ellipse 220" cx="4.5" cy="4.5" r="4.5" transform="translate(131 .24)"/><circle data-name="Ellipse 213" cx="4.5" cy="4.5" r="4.5" transform="translate(17 .24)"/><ellipse data-name="Ellipse 215" cx="4" cy="4.5" rx="4" ry="4.5" transform="translate(50 .24)"/><circle data-name="Ellipse 217" cx="4.5" cy="4.5" r="4.5" transform="translate(82 .24)"/><circle data-name="Ellipse 219" cx="4.5" cy="4.5" r="4.5" transform="translate(114 .24)"/><circle data-name="Ellipse 221" cx="4.5" cy="4.5" r="4.5" transform="translate(147 .24)"/></g><g data-name="Group 8029" transform="translate(0 98.52)"><circle data-name="Ellipse 212" cx="4.5" cy="4.5" r="4.5" transform="translate(0 .48)"/><circle data-name="Ellipse 214" cx="4.5" cy="4.5" r="4.5" transform="translate(33 .48)"/><circle data-name="Ellipse 216" cx="4.5" cy="4.5" r="4.5" transform="translate(66 .48)"/><ellipse data-name="Ellipse 218" cx="5" cy="4.5" rx="5" ry="4.5" transform="translate(98 .48)"/><circle data-name="Ellipse 220" cx="4.5" cy="4.5" r="4.5" transform="translate(131 .48)"/><circle data-name="Ellipse 213" cx="4.5" cy="4.5" r="4.5" transform="translate(17 .48)"/><ellipse data-name="Ellipse 215" cx="4" cy="4.5" rx="4" ry="4.5" transform="translate(50 .48)"/><circle data-name="Ellipse 217" cx="4.5" cy="4.5" r="4.5" transform="translate(82 .48)"/><circle data-name="Ellipse 219" cx="4.5" cy="4.5" r="4.5" transform="translate(114 .48)"/><circle data-name="Ellipse 221" cx="4.5" cy="4.5" r="4.5" transform="translate(147 .48)"/></g><g data-name="Group 8037" transform="translate(0 229.56)"><ellipse data-name="Ellipse 212" cx="4.5" cy="4" rx="4.5" ry="4" transform="translate(0 .44)"/><ellipse data-name="Ellipse 214" cx="4.5" cy="4" rx="4.5" ry="4" transform="translate(33 .44)"/><ellipse data-name="Ellipse 216" cx="4.5" cy="4" rx="4.5" ry="4" transform="translate(66 .44)"/><ellipse data-name="Ellipse 218" cx="5" cy="4" rx="5" ry="4" transform="translate(98 .44)"/><ellipse data-name="Ellipse 220" cx="4.5" cy="4" rx="4.5" ry="4" transform="translate(131 .44)"/><ellipse data-name="Ellipse 213" cx="4.5" cy="4" rx="4.5" ry="4" transform="translate(17 .44)"/><circle data-name="Ellipse 215" cx="4" cy="4" r="4" transform="translate(50 .44)"/><ellipse data-name="Ellipse 217" cx="4.5" cy="4" rx="4.5" ry="4" transform="translate(82 .44)"/><ellipse data-name="Ellipse 219" cx="4.5" cy="4" rx="4.5" ry="4" transform="translate(114 .44)"/><ellipse data-name="Ellipse 221" cx="4.5" cy="4" rx="4.5" ry="4" transform="translate(147 .44)"/></g><g data-name="Group 8030" transform="translate(0 114.48)"><ellipse data-name="Ellipse 212" cx="4.5" cy="5" rx="4.5" ry="5" transform="translate(0 -.48)"/><ellipse data-name="Ellipse 214" cx="4.5" cy="5" rx="4.5" ry="5" transform="translate(33 -.48)"/><ellipse data-name="Ellipse 216" cx="4.5" cy="5" rx="4.5" ry="5" transform="translate(66 -.48)"/><circle data-name="Ellipse 218" cx="5" cy="5" r="5" transform="translate(98 -.48)"/><ellipse data-name="Ellipse 220" cx="4.5" cy="5" rx="4.5" ry="5" transform="translate(131 -.48)"/><ellipse data-name="Ellipse 213" cx="4.5" cy="5" rx="4.5" ry="5" transform="translate(17 -.48)"/><ellipse data-name="Ellipse 215" cx="4" cy="5" rx="4" ry="5" transform="translate(50 -.48)"/><ellipse data-name="Ellipse 217" cx="4.5" cy="5" rx="4.5" ry="5" transform="translate(82 -.48)"/><ellipse data-name="Ellipse 219" cx="4.5" cy="5" rx="4.5" ry="5" transform="translate(114 -.48)"/><ellipse data-name="Ellipse 221" cx="4.5" cy="5" rx="4.5" ry="5" transform="translate(147 -.48)"/></g><g data-name="Group 8038" transform="translate(0 245.52)"><circle data-name="Ellipse 212" cx="4.5" cy="4.5" r="4.5" transform="translate(0 .48)"/><circle data-name="Ellipse 214" cx="4.5" cy="4.5" r="4.5" transform="translate(33 .48)"/><circle data-name="Ellipse 216" cx="4.5" cy="4.5" r="4.5" transform="translate(66 .48)"/><ellipse data-name="Ellipse 218" cx="5" cy="4.5" rx="5" ry="4.5" transform="translate(98 .48)"/><circle data-name="Ellipse 220" cx="4.5" cy="4.5" r="4.5" transform="translate(131 .48)"/><circle data-name="Ellipse 213" cx="4.5" cy="4.5" r="4.5" transform="translate(17 .48)"/><ellipse data-name="Ellipse 215" cx="4" cy="4.5" rx="4" ry="4.5" transform="translate(50 .48)"/><circle data-name="Ellipse 217" cx="4.5" cy="4.5" r="4.5" transform="translate(82 .48)"/><circle data-name="Ellipse 219" cx="4.5" cy="4.5" r="4.5" transform="translate(114 .48)"/><circle data-name="Ellipse 221" cx="4.5" cy="4.5" r="4.5" transform="translate(147 .48)"/></g></g><g data-name="Group 8054" opacity=".5"><g data-name="Group 8023" transform="translate(147 .24)"><circle data-name="Ellipse 212" cx="4.5" cy="4.5" r="4.5" transform="translate(0 -.24)"/><circle data-name="Ellipse 214" cx="4.5" cy="4.5" r="4.5" transform="translate(33 -.24)"/><ellipse data-name="Ellipse 216" cx="4" cy="4.5" rx="4" ry="4.5" transform="translate(66 -.24)"/><circle data-name="Ellipse 218" cx="4.5" cy="4.5" r="4.5" transform="translate(98 -.24)"/><circle data-name="Ellipse 220" cx="4.5" cy="4.5" r="4.5" transform="translate(130 -.24)"/><circle data-name="Ellipse 213" cx="4.5" cy="4.5" r="4.5" transform="translate(16 -.24)"/><circle data-name="Ellipse 215" cx="4.5" cy="4.5" r="4.5" transform="translate(49 -.24)"/><ellipse data-name="Ellipse 217" cx="5" cy="4.5" rx="5" ry="4.5" transform="translate(81 -.24)"/><circle data-name="Ellipse 219" cx="4.5" cy="4.5" r="4.5" transform="translate(114 -.24)"/><circle data-name="Ellipse 221" cx="4.5" cy="4.5" r="4.5" transform="translate(147 -.24)"/></g><g data-name="Group 8031" transform="translate(147 131.28)"><ellipse data-name="Ellipse 212" cx="4.5" cy="5" rx="4.5" ry="5" transform="translate(0 -.28)"/><ellipse data-name="Ellipse 214" cx="4.5" cy="5" rx="4.5" ry="5" transform="translate(33 -.28)"/><ellipse data-name="Ellipse 216" cx="4" cy="5" rx="4" ry="5" transform="translate(66 -.28)"/><ellipse data-name="Ellipse 218" cx="4.5" cy="5" rx="4.5" ry="5" transform="translate(98 -.28)"/><ellipse data-name="Ellipse 220" cx="4.5" cy="5" rx="4.5" ry="5" transform="translate(130 -.28)"/><ellipse data-name="Ellipse 213" cx="4.5" cy="5" rx="4.5" ry="5" transform="translate(16 -.28)"/><ellipse data-name="Ellipse 215" cx="4.5" cy="5" rx="4.5" ry="5" transform="translate(49 -.28)"/><circle data-name="Ellipse 217" cx="5" cy="5" r="5" transform="translate(81 -.28)"/><ellipse data-name="Ellipse 219" cx="4.5" cy="5" rx="4.5" ry="5" transform="translate(114 -.28)"/><ellipse data-name="Ellipse 221" cx="4.5" cy="5" rx="4.5" ry="5" transform="translate(147 -.28)"/></g><g data-name="Group 8024" transform="translate(147 17.04)"><ellipse data-name="Ellipse 212" cx="4.5" cy="4" rx="4.5" ry="4" transform="translate(0 -.04)"/><ellipse data-name="Ellipse 214" cx="4.5" cy="4" rx="4.5" ry="4" transform="translate(33 -.04)"/><circle data-name="Ellipse 216" cx="4" cy="4" r="4" transform="translate(66 -.04)"/><ellipse data-name="Ellipse 218" cx="4.5" cy="4" rx="4.5" ry="4" transform="translate(98 -.04)"/><ellipse data-name="Ellipse 220" cx="4.5" cy="4" rx="4.5" ry="4" transform="translate(130 -.04)"/><ellipse data-name="Ellipse 213" cx="4.5" cy="4" rx="4.5" ry="4" transform="translate(16 -.04)"/><ellipse data-name="Ellipse 215" cx="4.5" cy="4" rx="4.5" ry="4" transform="translate(49 -.04)"/><ellipse data-name="Ellipse 217" cx="5" cy="4" rx="5" ry="4" transform="translate(81 -.04)"/><ellipse data-name="Ellipse 219" cx="4.5" cy="4" rx="4.5" ry="4" transform="translate(114 -.04)"/><ellipse data-name="Ellipse 221" cx="4.5" cy="4" rx="4.5" ry="4" transform="translate(147 -.04)"/></g><g data-name="Group 8032" transform="translate(147 147.24)"><circle data-name="Ellipse 212" cx="4.5" cy="4.5" r="4.5" transform="translate(0 -.24)"/><circle data-name="Ellipse 214" cx="4.5" cy="4.5" r="4.5" transform="translate(33 -.24)"/><ellipse data-name="Ellipse 216" cx="4" cy="4.5" rx="4" ry="4.5" transform="translate(66 -.24)"/><circle data-name="Ellipse 218" cx="4.5" cy="4.5" r="4.5" transform="translate(98 -.24)"/><circle data-name="Ellipse 220" cx="4.5" cy="4.5" r="4.5" transform="translate(130 -.24)"/><circle data-name="Ellipse 213" cx="4.5" cy="4.5" r="4.5" transform="translate(16 -.24)"/><circle data-name="Ellipse 215" cx="4.5" cy="4.5" r="4.5" transform="translate(49 -.24)"/><ellipse data-name="Ellipse 217" cx="5" cy="4.5" rx="5" ry="4.5" transform="translate(81 -.24)"/><circle data-name="Ellipse 219" cx="4.5" cy="4.5" r="4.5" transform="translate(114 -.24)"/><circle data-name="Ellipse 221" cx="4.5" cy="4.5" r="4.5" transform="translate(147 -.24)"/></g><g data-name="Group 8025" transform="translate(147 33)"><circle data-name="Ellipse 212" cx="4.5" cy="4.5" r="4.5"/><circle data-name="Ellipse 214" cx="4.5" cy="4.5" r="4.5" transform="translate(33)"/><ellipse data-name="Ellipse 216" cx="4" cy="4.5" rx="4" ry="4.5" transform="translate(66)"/><circle data-name="Ellipse 218" cx="4.5" cy="4.5" r="4.5" transform="translate(98)"/><circle data-name="Ellipse 220" cx="4.5" cy="4.5" r="4.5" transform="translate(130)"/><circle data-name="Ellipse 213" cx="4.5" cy="4.5" r="4.5" transform="translate(16)"/><circle data-name="Ellipse 215" cx="4.5" cy="4.5" r="4.5" transform="translate(49)"/><ellipse data-name="Ellipse 217" cx="5" cy="4.5" rx="5" ry="4.5" transform="translate(81)"/><circle data-name="Ellipse 219" cx="4.5" cy="4.5" r="4.5" transform="translate(114)"/><circle data-name="Ellipse 221" cx="4.5" cy="4.5" r="4.5" transform="translate(147)"/></g><g data-name="Group 8033" transform="translate(147 164.04)"><circle data-name="Ellipse 212" cx="4.5" cy="4.5" r="4.5" transform="translate(0 -.04)"/><circle data-name="Ellipse 214" cx="4.5" cy="4.5" r="4.5" transform="translate(33 -.04)"/><ellipse data-name="Ellipse 216" cx="4" cy="4.5" rx="4" ry="4.5" transform="translate(66 -.04)"/><circle data-name="Ellipse 218" cx="4.5" cy="4.5" r="4.5" transform="translate(98 -.04)"/><circle data-name="Ellipse 220" cx="4.5" cy="4.5" r="4.5" transform="translate(130 -.04)"/><circle data-name="Ellipse 213" cx="4.5" cy="4.5" r="4.5" transform="translate(16 -.04)"/><circle data-name="Ellipse 215" cx="4.5" cy="4.5" r="4.5" transform="translate(49 -.04)"/><ellipse data-name="Ellipse 217" cx="5" cy="4.5" rx="5" ry="4.5" transform="translate(81 -.04)"/><circle data-name="Ellipse 219" cx="4.5" cy="4.5" r="4.5" transform="translate(114 -.04)"/><circle data-name="Ellipse 221" cx="4.5" cy="4.5" r="4.5" transform="translate(147 -.04)"/></g><g data-name="Group 8026" transform="translate(147 49.8)"><ellipse data-name="Ellipse 212" cx="4.5" cy="4" rx="4.5" ry="4" transform="translate(0 .2)"/><ellipse data-name="Ellipse 214" cx="4.5" cy="4" rx="4.5" ry="4" transform="translate(33 .2)"/><circle data-name="Ellipse 216" cx="4" cy="4" r="4" transform="translate(66 .2)"/><ellipse data-name="Ellipse 218" cx="4.5" cy="4" rx="4.5" ry="4" transform="translate(98 .2)"/><ellipse data-name="Ellipse 220" cx="4.5" cy="4" rx="4.5" ry="4" transform="translate(130 .2)"/><ellipse data-name="Ellipse 213" cx="4.5" cy="4" rx="4.5" ry="4" transform="translate(16 .2)"/><ellipse data-name="Ellipse 215" cx="4.5" cy="4" rx="4.5" ry="4" transform="translate(49 .2)"/><ellipse data-name="Ellipse 217" cx="5" cy="4" rx="5" ry="4" transform="translate(81 .2)"/><ellipse data-name="Ellipse 219" cx="4.5" cy="4" rx="4.5" ry="4" transform="translate(114 .2)"/><ellipse data-name="Ellipse 221" cx="4.5" cy="4" rx="4.5" ry="4" transform="translate(147 .2)"/></g><g data-name="Group 8034" transform="translate(147 180)"><circle data-name="Ellipse 212" cx="4.5" cy="4.5" r="4.5"/><circle data-name="Ellipse 214" cx="4.5" cy="4.5" r="4.5" transform="translate(33)"/><ellipse data-name="Ellipse 216" cx="4" cy="4.5" rx="4" ry="4.5" transform="translate(66)"/><circle data-name="Ellipse 218" cx="4.5" cy="4.5" r="4.5" transform="translate(98)"/><circle data-name="Ellipse 220" cx="4.5" cy="4.5" r="4.5" transform="translate(130)"/><circle data-name="Ellipse 213" cx="4.5" cy="4.5" r="4.5" transform="translate(16)"/><circle data-name="Ellipse 215" cx="4.5" cy="4.5" r="4.5" transform="translate(49)"/><ellipse data-name="Ellipse 217" cx="5" cy="4.5" rx="5" ry="4.5" transform="translate(81)"/><circle data-name="Ellipse 219" cx="4.5" cy="4.5" r="4.5" transform="translate(114)"/><circle data-name="Ellipse 221" cx="4.5" cy="4.5" r="4.5" transform="translate(147)"/></g><g data-name="Group 8027" transform="translate(147 65.76)"><circle data-name="Ellipse 212" cx="4.5" cy="4.5" r="4.5" transform="translate(0 .24)"/><circle data-name="Ellipse 214" cx="4.5" cy="4.5" r="4.5" transform="translate(33 .24)"/><ellipse data-name="Ellipse 216" cx="4" cy="4.5" rx="4" ry="4.5" transform="translate(66 .24)"/><circle data-name="Ellipse 218" cx="4.5" cy="4.5" r="4.5" transform="translate(98 .24)"/><circle data-name="Ellipse 220" cx="4.5" cy="4.5" r="4.5" transform="translate(130 .24)"/><circle data-name="Ellipse 213" cx="4.5" cy="4.5" r="4.5" transform="translate(16 .24)"/><circle data-name="Ellipse 215" cx="4.5" cy="4.5" r="4.5" transform="translate(49 .24)"/><ellipse data-name="Ellipse 217" cx="5" cy="4.5" rx="5" ry="4.5" transform="translate(81 .24)"/><circle data-name="Ellipse 219" cx="4.5" cy="4.5" r="4.5" transform="translate(114 .24)"/><circle data-name="Ellipse 221" cx="4.5" cy="4.5" r="4.5" transform="translate(147 .24)"/></g><g data-name="Group 8035" transform="translate(147 196.8)"><ellipse data-name="Ellipse 212" cx="4.5" cy="4" rx="4.5" ry="4" transform="translate(0 .2)"/><ellipse data-name="Ellipse 214" cx="4.5" cy="4" rx="4.5" ry="4" transform="translate(33 .2)"/><circle data-name="Ellipse 216" cx="4" cy="4" r="4" transform="translate(66 .2)"/><ellipse data-name="Ellipse 218" cx="4.5" cy="4" rx="4.5" ry="4" transform="translate(98 .2)"/><ellipse data-name="Ellipse 220" cx="4.5" cy="4" rx="4.5" ry="4" transform="translate(130 .2)"/><ellipse data-name="Ellipse 213" cx="4.5" cy="4" rx="4.5" ry="4" transform="translate(16 .2)"/><ellipse data-name="Ellipse 215" cx="4.5" cy="4" rx="4.5" ry="4" transform="translate(49 .2)"/><ellipse data-name="Ellipse 217" cx="5" cy="4" rx="5" ry="4" transform="translate(81 .2)"/><ellipse data-name="Ellipse 219" cx="4.5" cy="4" rx="4.5" ry="4" transform="translate(114 .2)"/><ellipse data-name="Ellipse 221" cx="4.5" cy="4" rx="4.5" ry="4" transform="translate(147 .2)"/></g><g data-name="Group 8028" transform="translate(147 81.72)"><circle data-name="Ellipse 212" cx="4.5" cy="4.5" r="4.5" transform="translate(0 .28)"/><circle data-name="Ellipse 214" cx="4.5" cy="4.5" r="4.5" transform="translate(33 .28)"/><ellipse data-name="Ellipse 216" cx="4" cy="4.5" rx="4" ry="4.5" transform="translate(66 .28)"/><circle data-name="Ellipse 218" cx="4.5" cy="4.5" r="4.5" transform="translate(98 .28)"/><circle data-name="Ellipse 220" cx="4.5" cy="4.5" r="4.5" transform="translate(130 .28)"/><circle data-name="Ellipse 213" cx="4.5" cy="4.5" r="4.5" transform="translate(16 .28)"/><circle data-name="Ellipse 215" cx="4.5" cy="4.5" r="4.5" transform="translate(49 .28)"/><ellipse data-name="Ellipse 217" cx="5" cy="4.5" rx="5" ry="4.5" transform="translate(81 .28)"/><circle data-name="Ellipse 219" cx="4.5" cy="4.5" r="4.5" transform="translate(114 .28)"/><circle data-name="Ellipse 221" cx="4.5" cy="4.5" r="4.5" transform="translate(147 .28)"/></g><g data-name="Group 8036" transform="translate(147 212.76)"><circle data-name="Ellipse 212" cx="4.5" cy="4.5" r="4.5" transform="translate(0 .24)"/><circle data-name="Ellipse 214" cx="4.5" cy="4.5" r="4.5" transform="translate(33 .24)"/><ellipse data-name="Ellipse 216" cx="4" cy="4.5" rx="4" ry="4.5" transform="translate(66 .24)"/><circle data-name="Ellipse 218" cx="4.5" cy="4.5" r="4.5" transform="translate(98 .24)"/><circle data-name="Ellipse 220" cx="4.5" cy="4.5" r="4.5" transform="translate(130 .24)"/><circle data-name="Ellipse 213" cx="4.5" cy="4.5" r="4.5" transform="translate(16 .24)"/><circle data-name="Ellipse 215" cx="4.5" cy="4.5" r="4.5" transform="translate(49 .24)"/><ellipse data-name="Ellipse 217" cx="5" cy="4.5" rx="5" ry="4.5" transform="translate(81 .24)"/><circle data-name="Ellipse 219" cx="4.5" cy="4.5" r="4.5" transform="translate(114 .24)"/><circle data-name="Ellipse 221" cx="4.5" cy="4.5" r="4.5" transform="translate(147 .24)"/></g><g data-name="Group 8029" transform="translate(147 98.52)"><circle data-name="Ellipse 212" cx="4.5" cy="4.5" r="4.5" transform="translate(0 .48)"/><circle data-name="Ellipse 214" cx="4.5" cy="4.5" r="4.5" transform="translate(33 .48)"/><ellipse data-name="Ellipse 216" cx="4" cy="4.5" rx="4" ry="4.5" transform="translate(66 .48)"/><circle data-name="Ellipse 218" cx="4.5" cy="4.5" r="4.5" transform="translate(98 .48)"/><circle data-name="Ellipse 220" cx="4.5" cy="4.5" r="4.5" transform="translate(130 .48)"/><circle data-name="Ellipse 213" cx="4.5" cy="4.5" r="4.5" transform="translate(16 .48)"/><circle data-name="Ellipse 215" cx="4.5" cy="4.5" r="4.5" transform="translate(49 .48)"/><ellipse data-name="Ellipse 217" cx="5" cy="4.5" rx="5" ry="4.5" transform="translate(81 .48)"/><circle data-name="Ellipse 219" cx="4.5" cy="4.5" r="4.5" transform="translate(114 .48)"/><circle data-name="Ellipse 221" cx="4.5" cy="4.5" r="4.5" transform="translate(147 .48)"/></g><g data-name="Group 8037" transform="translate(147 229.56)"><ellipse data-name="Ellipse 212" cx="4.5" cy="4" rx="4.5" ry="4" transform="translate(0 .44)"/><ellipse data-name="Ellipse 214" cx="4.5" cy="4" rx="4.5" ry="4" transform="translate(33 .44)"/><circle data-name="Ellipse 216" cx="4" cy="4" r="4" transform="translate(66 .44)"/><ellipse data-name="Ellipse 218" cx="4.5" cy="4" rx="4.5" ry="4" transform="translate(98 .44)"/><ellipse data-name="Ellipse 220" cx="4.5" cy="4" rx="4.5" ry="4" transform="translate(130 .44)"/><ellipse data-name="Ellipse 213" cx="4.5" cy="4" rx="4.5" ry="4" transform="translate(16 .44)"/><ellipse data-name="Ellipse 215" cx="4.5" cy="4" rx="4.5" ry="4" transform="translate(49 .44)"/><ellipse data-name="Ellipse 217" cx="5" cy="4" rx="5" ry="4" transform="translate(81 .44)"/><ellipse data-name="Ellipse 219" cx="4.5" cy="4" rx="4.5" ry="4" transform="translate(114 .44)"/><ellipse data-name="Ellipse 221" cx="4.5" cy="4" rx="4.5" ry="4" transform="translate(147 .44)"/></g><g data-name="Group 8030" transform="translate(147 114.48)"><ellipse data-name="Ellipse 212" cx="4.5" cy="5" rx="4.5" ry="5" transform="translate(0 -.48)"/><ellipse data-name="Ellipse 214" cx="4.5" cy="5" rx="4.5" ry="5" transform="translate(33 -.48)"/><ellipse data-name="Ellipse 216" cx="4" cy="5" rx="4" ry="5" transform="translate(66 -.48)"/><ellipse data-name="Ellipse 218" cx="4.5" cy="5" rx="4.5" ry="5" transform="translate(98 -.48)"/><ellipse data-name="Ellipse 220" cx="4.5" cy="5" rx="4.5" ry="5" transform="translate(130 -.48)"/><ellipse data-name="Ellipse 213" cx="4.5" cy="5" rx="4.5" ry="5" transform="translate(16 -.48)"/><ellipse data-name="Ellipse 215" cx="4.5" cy="5" rx="4.5" ry="5" transform="translate(49 -.48)"/><circle data-name="Ellipse 217" cx="5" cy="5" r="5" transform="translate(81 -.48)"/><ellipse data-name="Ellipse 219" cx="4.5" cy="5" rx="4.5" ry="5" transform="translate(114 -.48)"/><ellipse data-name="Ellipse 221" cx="4.5" cy="5" rx="4.5" ry="5" transform="translate(147 -.48)"/></g><g data-name="Group 8038" transform="translate(147 245.52)"><circle data-name="Ellipse 212" cx="4.5" cy="4.5" r="4.5" transform="translate(0 .48)"/><circle data-name="Ellipse 214" cx="4.5" cy="4.5" r="4.5" transform="translate(33 .48)"/><ellipse data-name="Ellipse 216" cx="4" cy="4.5" rx="4" ry="4.5" transform="translate(66 .48)"/><circle data-name="Ellipse 218" cx="4.5" cy="4.5" r="4.5" transform="translate(98 .48)"/><circle data-name="Ellipse 220" cx="4.5" cy="4.5" r="4.5" transform="translate(130 .48)"/><circle data-name="Ellipse 213" cx="4.5" cy="4.5" r="4.5" transform="translate(16 .48)"/><circle data-name="Ellipse 215" cx="4.5" cy="4.5" r="4.5" transform="translate(49 .48)"/><ellipse data-name="Ellipse 217" cx="5" cy="4.5" rx="5" ry="4.5" transform="translate(81 .48)"/><circle data-name="Ellipse 219" cx="4.5" cy="4.5" r="4.5" transform="translate(114 .48)"/><circle data-name="Ellipse 221" cx="4.5" cy="4.5" r="4.5" transform="translate(147 .48)"/></g></g></g></svg>