<svg xmlns="http://www.w3.org/2000/svg" width="275.518" height="221.737"><defs><clipPath id="a"><rect data-name="Rectangle 704" width="275.518" height="221.737" rx="8" fill="none"/></clipPath></defs><g data-name="Rectangle 704"><g data-name="Group 1490" fill="none" stroke="#fff" clip-path="url(#a)" opacity=".3"><g data-name="Group 1488"><path d="M302.905 37.243s-43.863 26.5-65.757 24.354c-25.93-2.543-49.652-52.172-106.065-42.684S56.38 3.692 68.303-33.753"/><path data-name="Vector" d="M347.524 64.934s-56.281 34.004-84.376 31.247c-33.27-3.266-63.71-66.946-136.098-54.771S31.197 21.883 46.493-26.164"/></g><g data-name="Group 1489"><path data-name="Vector" d="M-28.847 213.376s43.863-26.5 65.757-24.354c25.93 2.543 49.652 52.172 106.065 42.684s74.702 15.221 62.78 52.666"/><path data-name="Vector" d="M-73.467 185.685s56.281-34.004 84.376-31.247c33.27 3.266 63.71 66.946 136.098 54.771s95.853 19.527 80.557 67.574"/></g></g></g></svg>