<svg xmlns="http://www.w3.org/2000/svg" width="317" height="134"><defs><filter id="a" x="0" y="0" width="317" height="134" filterUnits="userSpaceOnUse"><feOffset dy="20"/><feGaussianBlur stdDeviation="13" result="blur"/><feFlood flood-opacity=".161"/><feComposite operator="in" in2="blur"/><feComposite in="SourceGraphic"/></filter></defs><g filter="url(#a)"><rect data-name="Rectangle 94" width="239" height="56" rx="5" transform="translate(39 19)" fill="#f39200"/></g><g data-name="Group 36259" fill="#fff"><path data-name="Icon awesome-check-circle" d="M90.538 47a10.768 10.768 0 11-10.77-10.767A10.768 10.768 0 0190.538 47zm-12.013 5.7l7.989-7.989a.7.7 0 000-.982l-.982-.982a.7.7 0 00-.982 0l-6.519 6.516-3.041-3.042a.7.7 0 00-.982 0l-.982.982a.7.7 0 000 .982l4.512 4.517a.7.7 0 00.982 0z"/><text data-name="Earn Money weekly" transform="translate(103 52.232)" font-size="15" font-family="Poppins-SemiBold, Poppins" font-weight="600"><tspan x="0" y="0">Earn Money weekly</tspan></text></g></svg>