<svg xmlns="http://www.w3.org/2000/svg" width="356" height="134"><defs><filter id="a" x="0" y="0" width="356" height="134" filterUnits="userSpaceOnUse"><feOffset dy="20"/><feGaussianBlur stdDeviation="13" result="blur"/><feFlood flood-opacity=".161"/><feComposite operator="in" in2="blur"/><feComposite in="SourceGraphic"/></filter></defs><g filter="url(#a)"><rect data-name="Rectangle 93" width="278" height="56" rx="5" transform="translate(39 19)" fill="#3a7bbf"/></g><g data-name="Group 36258" fill="#fff"><path data-name="Icon awesome-check-circle" d="M74.538 46.768a10.768 10.768 0 11-10.77-10.767 10.768 10.768 0 0110.77 10.767zm-12.013 5.7l7.989-7.989a.7.7 0 000-.982l-.982-.982a.7.7 0 00-.982 0l-6.519 6.516-3.041-3.042a.7.7 0 00-.982 0l-.982.982a.7.7 0 000 .982l4.512 4.517a.7.7 0 00.982 0z"/><text data-name="Accept customers requests" transform="translate(87 52)" font-size="15" font-family="Poppins-SemiBold, Poppins" font-weight="600"><tspan x="0" y="0">Accept customers requests</tspan></text></g></svg>