<svg xmlns="http://www.w3.org/2000/svg" width="363.082" height="424.33"><g data-name="Group 63275"><g data-name="Group 63261"><path data-name="Path 22132" d="M354.364 314.712H176.813l8.717-31.459h177.551z" fill="#f27c00"/><g data-name="Group 63257"><g data-name="Group 63254" fill="#fff"><path data-name="Path 22133" d="M196.991 299.36h-3.443l-.849 4.188h4.082l-1.059 3.339h-7.846l3.737-17.652h7.74l-.716 3.34h-3.6l-.768 3.419h3.445z"/><path data-name="Path 22134" d="M204.438 292.601c-.053 1.061-.159 3.5-.239 4.506h.212c.478-1.378 1.193-3.605 1.484-4.506h4.613l-3.818 6.812.955 7.474h-4.347c.054-1.351.08-3.869.133-4.665h-.183c-.53 1.75-1.351 3.9-1.616 4.665h-4.506l3.764-7.368-.743-6.918z"/><path data-name="Path 22135" d="M212.467 305.933l-1.166 5.354h-4.082l3.075-14.578c.4-1.908.742-3.631.821-4.108h4.033a12.212 12.212 0 01-.186 1.325 3.272 3.272 0 012.81-1.537c1.988 0 2.6 1.485 2.041 4.161l-1.378 6.653c-.478 2.2-1.378 3.923-3.843 3.923a2.244 2.244 0 01-2.125-1.193zm1.935-3.286l1.219-5.884c.133-.637.026-1.034-.4-1.034-.5 0-.716.424-.9 1.272l-1.139 5.46c-.16.795-.08 1.272.4 1.272.343 0 .635-.185.82-1.086z"/><path data-name="Path 22136" d="M221.027 297.478c.531-2.544.848-4.135.981-4.877h3.975a21.535 21.535 0 01-.291 1.856 3.379 3.379 0 013.181-2.068l-1.034 4.877c-2.518-.159-2.889 1.113-3.207 2.624l-1.485 7h-4.108z"/><path data-name="Path 22137" d="M232.079 300.711l-.451 2.333c-.159.769.08 1.007.4 1.007.478 0 .663-.265.849-1.087l.212-.98h3.975l-.106.663c-.556 2.783-1.775 4.479-5.3 4.479-3.843 0-4.585-2.121-3.9-5.407l.954-4.532c.662-3.075 2.014-4.8 5.406-4.8 3.844 0 4.56 2.015 3.9 5.2l-.663 3.127zm1.8-2.623l.238-1.14c.239-1.087.292-1.59-.291-1.59-.53 0-.663.318-.928 1.669l-.212 1.061z"/><path data-name="Path 22138" d="M241.989 302.302l-.185.875c-.16.741-.027 1.086.371 1.086.317 0 .583-.212.715-.848.159-.768.185-1.431-1.113-2.491-2.121-1.723-2.624-2.863-2.2-4.983.424-2.147 1.67-3.552 4.559-3.552 3.949 0 4.214 2.465 3.842 4.241l-.105.5h-3.631l.158-.715c.186-.848.186-1.272-.291-1.272-.344 0-.5.238-.609.689-.186.8-.054 1.192.848 1.935 2.491 2.041 3.075 3.154 2.624 5.565-.4 2.068-1.485 3.791-4.956 3.791-4 0-4.215-2.412-3.817-4.426l.079-.4z"/><path data-name="Path 22139" d="M252.14 302.302l-.186.875c-.159.741-.026 1.086.371 1.086.318 0 .583-.212.715-.848.159-.768.186-1.431-1.112-2.491-2.121-1.723-2.624-2.863-2.2-4.983.424-2.147 1.67-3.552 4.559-3.552 3.949 0 4.214 2.465 3.843 4.241l-.106.5h-3.63l.158-.715c.185-.848.185-1.272-.291-1.272-.345 0-.5.238-.61.689-.185.8-.053 1.192.848 1.935 2.491 2.041 3.075 3.154 2.624 5.565-.4 2.068-1.484 3.791-4.956 3.791-4 0-4.215-2.412-3.816-4.426l.079-.4z"/></g><g data-name="Group 63256"><g data-name="Group 63255" fill="#fff"><path data-name="Path 22140" d="M271.43 300.185c.455-2.159.951-4.4 1.257-5.618h-.056c-.825 1.788-3.747 7-5.738 10.572h-1.332c-.343-2.888-1.163-9.225-1.21-10.595h-.051c-.185 1.257-.728 3.944-1.146 5.937l-.97 4.658h-1.4l2.461-11.625h2.209c.462 3.456 1.085 8.245 1.166 9.751h.027c.5-1.136 3.44-6.229 5.415-9.751h2.22l-2.461 11.625h-1.443z"/><path data-name="Path 22141" d="M281.237 303.039a54.225 54.225 0 00-.4 2.1h-1.36c.029-.309.121-.83.22-1.3a3.016 3.016 0 01-2.87 1.469 2.089 2.089 0 01-2.331-2.131c0-2.417 2.266-2.945 3.962-3.108.879-.077 1.628-.077 2.056-.094l.11-.573c.16-.8.1-1.828-1.521-1.828a1.917 1.917 0 00-2.07 1.394h-1.412c.291-1.258 1.228-2.466 3.607-2.466 1.945 0 3.2.879 2.773 2.91zm-.928-2.039c-.457.011-1.021.018-1.74.089-1.372.147-2.6.516-2.6 1.878 0 .641.429 1.186 1.363 1.186 1.849 0 2.576-1.442 2.943-3.019z"/><path data-name="Path 22142" d="M285.117 296.67h1.383l-1.8 8.472h-1.383zm.8-3.794h1.383l-.382 1.827h-1.383z"/><path data-name="Path 22143" d="M288.537 298.818c.15-.735.3-1.448.424-2.151h1.353c-.027.266-.2 1.217-.257 1.445a3.165 3.165 0 012.847-1.612c1.614 0 2.625.934 2.107 3.34l-1.114 5.3h-1.377l1.1-5.257c.275-1.28-.011-2.158-1.3-2.158-1.574 0-2.474 1.446-2.841 3.178l-.9 4.237h-1.383z"/><path data-name="Path 22144" d="M297.023 296.67h1.4l.522-2.446h1.377l-.512 2.446h1.8l-.256 1.137h-1.8l-1.075 5.127c-.164.776-.125 1.148.608 1.148a4.339 4.339 0 00.838-.072l-.249 1.092a3.636 3.636 0 01-1.179.145c-1.332 0-1.756-.644-1.46-2.052l1.134-5.388h-1.4z"/><path data-name="Path 22145" d="M302.986 301.11a5.515 5.515 0 00-.071.807c0 1.428.678 2.235 1.868 2.235a2.306 2.306 0 002.189-1.4h1.44a3.811 3.811 0 01-3.786 2.555c-2.124 0-3.11-1.4-3.11-3.366 0-2.384 1.3-5.44 4.431-5.44a2.76 2.76 0 013.03 3.024 5.748 5.748 0 01-.212 1.586zm4.594-1.049a3.046 3.046 0 00.055-.615 1.591 1.591 0 00-1.765-1.821c-1.288 0-2.223.888-2.652 2.436z"/><path data-name="Path 22146" d="M311.283 298.818c.151-.735.3-1.448.424-2.151h1.353c-.027.266-.2 1.217-.257 1.445a3.166 3.166 0 012.847-1.612c1.614 0 2.625.934 2.107 3.34l-1.113 5.3h-1.377l1.1-5.257c.275-1.28-.011-2.158-1.3-2.158-1.574 0-2.474 1.446-2.84 3.178l-.9 4.237h-1.379z"/><path data-name="Path 22147" d="M325.742 303.039a54.225 54.225 0 00-.4 2.1h-1.36c.029-.309.121-.83.22-1.3a3.017 3.017 0 01-2.87 1.469 2.089 2.089 0 01-2.331-2.131c0-2.417 2.265-2.945 3.962-3.108.879-.077 1.628-.077 2.055-.094l.111-.573c.16-.8.1-1.828-1.521-1.828a1.916 1.916 0 00-2.07 1.394h-1.412c.291-1.258 1.228-2.466 3.607-2.466 1.945 0 3.2.879 2.773 2.91zm-.929-2.039c-.456.011-1.02.018-1.739.089-1.372.147-2.6.516-2.6 1.878 0 .641.429 1.186 1.363 1.186 1.849 0 2.576-1.442 2.943-3.019z"/><path data-name="Path 22148" d="M329.165 298.818c.15-.735.3-1.448.423-2.151h1.354c-.027.266-.2 1.217-.257 1.445a3.165 3.165 0 012.847-1.612c1.613 0 2.625.934 2.107 3.34l-1.114 5.3h-1.377l1.1-5.257c.275-1.28-.011-2.158-1.3-2.158-1.574 0-2.474 1.446-2.841 3.178l-.9 4.237h-1.383z"/><path data-name="Path 22149" d="M344.13 302.605a3.733 3.733 0 01-3.765 2.7c-2.076 0-3.074-1.356-3.074-3.315 0-2.55 1.421-5.491 4.377-5.491a2.657 2.657 0 012.963 2.876h-1.359c-.039-.958-.454-1.739-1.692-1.739-1.963 0-2.855 2.427-2.855 4.259 0 1.6.726 2.279 1.838 2.279a2.4 2.4 0 002.173-1.57z"/><path data-name="Path 22150" d="M347.124 301.11a5.515 5.515 0 00-.071.807c0 1.428.677 2.235 1.868 2.235a2.3 2.3 0 002.188-1.4h1.439a3.811 3.811 0 01-3.786 2.555c-2.124 0-3.111-1.4-3.111-3.366 0-2.384 1.3-5.44 4.432-5.44a2.759 2.759 0 013.029 3.024 5.709 5.709 0 01-.212 1.586zm4.594-1.049a3.042 3.042 0 00.054-.615 1.59 1.59 0 00-1.764-1.821c-1.288 0-2.223.888-2.653 2.436z"/></g></g></g><g data-name="Group 63260" fill="#2e2e2d"><g data-name="Group 63258"><path data-name="Path 22151" d="M103.291 363.511a30.159 30.159 0 01-.249 6.53 34.184 34.184 0 01-1.422 6.768q-.9 2.574-1.658 2.574h-7.341q-10.963 0-16.429-6.577-10.523 4.1-18.817 4.1a26.765 26.765 0 01-13.987-3.623 22.91 22.91 0 01-9.1-9.866 24.039 24.039 0 01-2.082-13.775 28.723 28.723 0 015.537-13.728 32.543 32.543 0 0111.667-9.771 33.172 33.172 0 0115.177-3.576h11.631l.359-2.859h21.449l-4.324 34.414q-.443 3.528.73 5.2t4.032 1.668h3.813q.758-.006 1.014 2.521zm-51.643-50.835a6.6 6.6 0 01-1.446-5.482 8.545 8.545 0 012.829-5.52 8.414 8.414 0 015.788-2.134 6.61 6.61 0 015.25 2.13 6.724 6.724 0 011.441 5.52 8.437 8.437 0 01-8.606 7.579 6.674 6.674 0 01-5.256-2.093zm20.458 42.589l.132-1.049 1.665-13.251H64.18a10.652 10.652 0 00-6.938 2.478 9.277 9.277 0 00-3.5 6.2 7.4 7.4 0 001.92 6.339 8.3 8.3 0 006.309 2.526q4.197-.002 10.134-3.243zm-3.107-42.589a6.6 6.6 0 01-1.446-5.482 8.536 8.536 0 012.829-5.52 8.408 8.408 0 015.787-2.134 6.612 6.612 0 015.251 2.13 6.726 6.726 0 011.439 5.52 8.4 8.4 0 01-2.822 5.482 8.485 8.485 0 01-5.783 2.1 6.671 6.671 0 01-5.256-2.096z"/><path data-name="Path 22152" d="M138.048 328.191l-6.433 51.192H99.962q-.762 0-1.012-2.574a39.882 39.882 0 011.671-13.3q.891-2.526 1.652-2.527h10.2l4.121-32.793zm-16.61-9.676a8.55 8.55 0 01-1.874-7.1 11.063 11.063 0 013.664-7.15 10.9 10.9 0 017.5-2.764 8.557 8.557 0 016.8 2.764 8.709 8.709 0 011.867 7.15 10.928 10.928 0 01-11.148 9.819 8.644 8.644 0 01-6.813-2.719z"/><path data-name="Path 22153" d="M177.648 363.511a30.084 30.084 0 01-.248 6.53 34.111 34.111 0 01-1.422 6.768q-.9 2.574-1.658 2.574h-31.272l9.115-72.546h21.449l-6.8 54.147h9.82q.761 0 1.016 2.527z"/><path data-name="Path 22154" d="M222.448 363.511a30.086 30.086 0 01-.248 6.53 34.029 34.029 0 01-1.423 6.768q-.894 2.574-1.658 2.574h-4.766q-9.63 0-14.32-5.148a26.619 26.619 0 01-16.472 5.148h-9.247q-.76 0-1.011-2.574a39.882 39.882 0 011.671-13.3q.889-2.526 1.652-2.527h5.72a5.86 5.86 0 004.452-1.668 9.008 9.008 0 002.035-5.2l3.259-25.93h21.456l-3.271 26.025q-.178 1.43-.682 3.909.975 2.859 4.6 2.859h7.246q.755.007 1.007 2.534zm-42.81 36.678a6.6 6.6 0 01-1.447-5.481 8.538 8.538 0 012.829-5.52 8.4 8.4 0 015.788-2.135 6.6 6.6 0 015.251 2.135 6.715 6.715 0 011.441 5.52 8.407 8.407 0 01-2.823 5.481 8.494 8.494 0 01-5.783 2.1 6.68 6.68 0 01-5.253-2.1zm17.35 0a6.6 6.6 0 01-1.446-5.481 8.529 8.529 0 012.829-5.52 8.4 8.4 0 015.787-2.135 6.6 6.6 0 015.252 2.135 6.718 6.718 0 011.439 5.52 8.4 8.4 0 01-2.822 5.481 8.493 8.493 0 01-5.783 2.1 6.677 6.677 0 01-5.253-2.1z"/><path data-name="Path 22155" d="M336.518 327.81a25.328 25.328 0 0111.289 12.2 32.422 32.422 0 012.062 16.968l-2.815 22.4h-82.652q-12.391 0-17.752-5.148-7.033 5.148-19.331 5.148h-8.2q-.762 0-1.012-2.574a39.95 39.95 0 011.671-13.3q.891-2.526 1.653-2.527h5.433q4.669 0 6.424-1.429t2.256-5.434l2.659-21.163h21.449l-2.671 21.258q-.192 1.525-.717 4.194a3.2 3.2 0 002.179 2 17.1 17.1 0 005.123.571 66.76 66.76 0 0110.3-18.208 52.6 52.6 0 0117.3-14.013q10.607-5.527 24.623-5.529 12.674.01 20.729 4.586zm-8.6 33.174l.5-4q.969-7.72-2.411-11.534t-11.391-3.814a30.139 30.139 0 00-17.341 5.244 34.321 34.321 0 00-11.878 14.108z"/></g><g data-name="Group 63259"><path data-name="Path 22156" d="M57.5 412.37q-.458 2.3-1.309 2.3h-2.343a7.92 7.92 0 01-5.593-1.83 10.056 10.056 0 01-6.322 1.83q-3.871 0-5.8-1.83a10.051 10.051 0 01-6.321 1.83 8.575 8.575 0 01-3.643-.723 18.4 18.4 0 01-6.079 7.553 15.144 15.144 0 01-9.052 2.829 11.4 11.4 0 01-6.984-2 9.6 9.6 0 01-3.59-5.468 17.331 17.331 0 01-.04-7.807 28.43 28.43 0 012.539-7.191l4.044 2.128a25.106 25.106 0 00-1.716 5.191q-.975 4.891.8 7.722t5.861 2.83a9.652 9.652 0 006.988-2.83 14.3 14.3 0 003.87-7.68 22.045 22.045 0 00.406-4.489 20.45 20.45 0 00-.446-4.276l4.782-2.212a21.453 21.453 0 01.679 5.126 25.937 25.937 0 01-.493 5.681l-.153.766a7.165 7.165 0 002.324.3 5.444 5.444 0 003.518-.894 5.522 5.522 0 001.507-3.191l1.985-9.957h4.893l-1.992 10a15.344 15.344 0 01-1.052 3.361 6.286 6.286 0 003.267.681 5.445 5.445 0 003.519-.894 5.522 5.522 0 001.507-3.191l2.409-12.084h4.892l-2.414 12.126a15.834 15.834 0 01-1.061 3.4 4.6 4.6 0 002.553.639h3.66q.848.003.4 2.254z"/><path data-name="Path 22157" d="M69.715 393.992l-4.12 20.678h-9.4q-.85 0-.393-2.3.45-2.254 1.3-2.255h4.509l3.213-16.127zm-13.325 28.55a2.324 2.324 0 01-.35-1.93 3.274 3.274 0 011.115-1.91 3 3 0 012-.752 2.023 2.023 0 011.7.752 2.257 2.257 0 01.352 1.91 3.362 3.362 0 01-1.117 1.93 2.979 2.979 0 01-2.006.771 1.99 1.99 0 01-1.694-.771zm6.722 0a2.323 2.323 0 01-.349-1.93 3.277 3.277 0 011.114-1.91 3 3 0 012-.752 2.021 2.021 0 011.7.752 2.258 2.258 0 01.354 1.91 3.371 3.371 0 01-1.119 1.93 2.975 2.975 0 01-2.005.771 1.993 1.993 0 01-1.695-.771z"/><path data-name="Path 22158" d="M99.154 412.37q-.457 2.3-1.308 2.3h-2.17q-4.427 0-6.048-2.106t-.749-6.488l.084-.426a15.655 15.655 0 01-3.795.468 13.661 13.661 0 01-3.651-.468l-1.814 9.1a11.928 11.928 0 01-3.816 6.978 11.031 11.031 0 01-7.2 2.6l.151-4.595a5.512 5.512 0 004.007-1 6.745 6.745 0 001.962-3.979l4.137-20.764h4.894l-1.416 7.106a13.625 13.625 0 003.651.468 15.6 15.6 0 003.8-.468l1.416-7.106h4.893l-2.4 12.042q-.45 2.256.221 3.17t2.966.915h1.787q.846.002.398 2.253zm-13.676 10.769a2.566 2.566 0 01-.384-2.128 3.619 3.619 0 011.228-2.106 3.31 3.31 0 012.207-.83 2.231 2.231 0 011.877.83 2.489 2.489 0 01.389 2.106 3.7 3.7 0 01-1.233 2.128 3.276 3.276 0 01-2.21.85 2.2 2.2 0 01-1.874-.85z"/><path data-name="Path 22159" d="M140.001 412.37q-.459 2.3-1.31 2.3h-2.343a7.92 7.92 0 01-5.593-1.83 10.052 10.052 0 01-6.322 1.83q-3.871 0-5.8-1.83a10.056 10.056 0 01-6.322 1.83q-3.873 0-5.8-1.83a10.654 10.654 0 01-6.533 1.83h-2.13q-.852 0-.393-2.3.448-2.254 1.3-2.255h1.744a4.966 4.966 0 003.332-.915 5.626 5.626 0 001.482-3.17l1.56-7.829h4.894l-1.569 7.872a15.292 15.292 0 01-1.053 3.361 6.293 6.293 0 003.268.681 5.442 5.442 0 003.518-.894 5.516 5.516 0 001.507-3.191l1.985-9.957h4.893l-1.993 10a15.291 15.291 0 01-1.051 3.361 6.288 6.288 0 003.268.681 5.446 5.446 0 003.518-.894 5.516 5.516 0 001.507-3.191l2.409-12.084h4.893l-2.419 12.131a15.78 15.78 0 01-1.061 3.4 4.469 4.469 0 002.553.639h3.66q.848.003.401 2.254z"/><path data-name="Path 22160" d="M156.681 400.523q1.626 3.894.491 9.6l-.907 4.547h-17.573q-.85 0-.392-2.3.449-2.254 1.3-2.255h12.679l.068-.341q.975-4.891-.593-7.595t-5.44-2.7l-2.419-3.234 13.292-11.19 2.428 3.191-8.394 7.106a8.708 8.708 0 015.46 5.171z"/><path data-name="Path 22161" d="M169.353 383.143h4.895l-6.283 31.527h-4.894z"/></g></g></g><g data-name="Group 63274" transform="translate(-218.252 -318.33)"><g data-name="Group 63264"><g data-name="Group 63262" fill="#f27c00"><path data-name="Path 22162" d="M359.96 367.5l-.03.032a3.986 3.986 0 01-5.638.132l-20.533-19.609a3.88 3.88 0 01-.129-5.635 3.987 3.987 0 015.638-.132L359.8 361.9a3.989 3.989 0 01.16 5.6z"/><path data-name="Path 22163" d="M339.251 396.26a3.991 3.991 0 01-4.826.775l-48.142-26.345a3.987 3.987 0 013.828-7l48.142 26.344a3.985 3.985 0 011.581 5.413 3.889 3.889 0 01-.583.813z"/><path data-name="Path 22164" d="M326.591 429.282a3.983 3.983 0 01-3.86 1.156l-27.982-6.815a3.987 3.987 0 011.885-7.747l27.982 6.815a3.989 3.989 0 011.975 6.591z"/><path data-name="Path 22165" d="M322.636 464.426a3.967 3.967 0 01-2.822 1.264l-54.914 1.258a3.985 3.985 0 11-.184-7.967l54.913-1.258a3.985 3.985 0 013.006 6.7z"/><path data-name="Path 22166" d="M327.993 499.407a3.962 3.962 0 01-1.793 1.1l-27.373 8.012a3.985 3.985 0 11-2.24-7.649l27.373-8.013a3.987 3.987 0 014.033 6.549z"/><path data-name="Path 22167" d="M342.159 531.851a3.932 3.932 0 01-.845.685l-46.8 28.469a3.985 3.985 0 11-4.144-6.807l46.8-28.469a3.986 3.986 0 014.99 6.122z"/></g><g data-name="Group 63263"><path data-name="Path 22168" d="M364.257 559.016l-.03.032-19.7 20.624a3.986 3.986 0 01-5.8-5.471l.03-.032 19.7-20.624a3.986 3.986 0 015.8 5.471z" fill="#f27c00"/></g></g><rect data-name="Rectangle 2674" width="10.328" height="23.74" rx="5.164" transform="rotate(-76.145 454.531 -129.727)" fill="#f27c00"/><rect data-name="Rectangle 2675" width="11.017" height="38.825" rx="5.508" transform="rotate(-76.145 444.532 -133.645)" fill="#f27c00"/><path data-name="Path 22169" d="M471.044 335.485a4.037 4.037 0 014.886-2.952" fill="#f27c00"/><g data-name="Group 63269"><path data-name="Path 22170" d="M437.626 382.874a77.609 77.609 0 1091.418 60.735 77.7 77.7 0 00-91.418-60.735z" fill="#9e1d10"/><path data-name="Path 22171" d="M422.137 390.8c-39.626 17.5-58.332 62.375-41.7 100.028s62.4 54.042 102.026 36.538 58.331-62.376 41.7-100.027S461.76 373.3 422.137 390.8z" fill="#fff"/><circle data-name="Ellipse 224" cx="71.688" cy="71.688" r="71.688" transform="rotate(-58.73 606.022 -73.805)" fill="#f27c00"/><g data-name="Group 63268"><g data-name="Group 63267"><path data-name="Path 22172" d="M452.317 507.945l-46.4-56.66s.758 21.449-18.23 32.922l-1.247.754c2.69 12.086 10.844 23.846 21.808 29.565 21.201-11.901 44.069-6.581 44.069-6.581z" fill="#fff"/><g data-name="Group 63266"><path data-name="Path 22173" d="M445.575 440.1c-3.95 4.7-8.913 15.413 3.711 26.5 12.881 11.318 21.36 6.144 24.986 2.631s18.488-18.812 19.47-19.735c4.091-3.847 4.911-.074 4.911-.074s7.869 35-20.1 54.3c-10.911 7.752-36.793 8.319-56.58-10.226-16.13-15.123-22.713-38.5-9.915-57.373 18.96-24.835 50.784-22.127 50.786-22.128s5.68.745 3.039 3.691c-1.906 2.122-16.357 17.714-20.308 22.414z" fill="#fff"/><g data-name="Group 63265"><path data-name="Path 22174" d="M422.8 494.224c-9.808-6.529-26.092-23.73-20.1-47.785 1-4.028 5.084-16.273 7.2-20.672l7.315 4.53c-24.815 31.537 5.585 63.927 5.585 63.927z" fill="#f27c00"/></g><path data-name="Path 22175" d="M495.053 463c-3.9 33.849-27.845 39.494-27.845 39.492S484.953 491.66 495.053 463z" fill="#f27c00"/></g></g></g><path data-name="Path 22176" d="M460.476 454.473l-5.061-17.481 12.609-13.123 17.667 4.357 5.061 17.481-12.609 13.123z" fill="#fff"/><path data-name="Path 22177" d="M479.035 442.818a6.128 6.128 0 11-4.483-7.419 6.129 6.129 0 014.483 7.419z" fill="#f27c00"/></g><path data-name="Path 22178" d="M349.714 434.654a106.112 106.112 0 00-1.758 41.312 104.351 104.351 0 1019.411-78.7 106.08 106.08 0 00-17.653 37.388zm-.408-.1a106.341 106.341 0 11-1.926 41.5 106.6 106.6 0 011.926-41.501z" fill="#161615"/><g data-name="Group 63270" fill="none" stroke="#f27c00" stroke-linecap="round" stroke-miterlimit="10"><path data-name="Line 6" stroke-width="4" d="M476.137 365.135l-2.782 11.279"/><path data-name="Line 7" stroke-width="4" d="M429.198 554.957l2.782-11.279"/><path data-name="Line 8" stroke-width="4" d="M357.756 436.577l11.279 2.782"/><path data-name="Line 9" d="M476.492 365.222l-2.383 9.66"/><path data-name="Line 10" d="M464.759 363.026l-1.188 9.879"/><path data-name="Line 11" d="M452.844 362.275l.025 9.95"/><path data-name="Line 12" d="M440.928 362.983l1.238 9.872"/><path data-name="Line 13" d="M429.186 365.137l2.432 9.648"/><path data-name="Line 14" d="M417.795 368.706l3.589 9.28"/><path data-name="Line 15" d="M406.923 373.637l4.693 8.773"/><path data-name="Line 16" d="M396.733 379.856l5.728 8.136"/><path data-name="Line 17" d="M387.378 387.27l6.676 7.377"/><path data-name="Line 18" d="M378.995 395.769l7.526 6.509"/><path data-name="Line 19" d="M371.711 405.227l8.263 5.543"/><path data-name="Line 20" d="M365.633 415.502l8.877 4.495"/><path data-name="Line 21" d="M360.854 426.44l9.358 3.379"/><path data-name="Line 22" d="M357.442 437.88l9.7 2.214"/><path data-name="Line 23" d="M355.451 449.65l9.898 1.015"/><path data-name="Line 24" d="M354.909 461.576l9.948-.199"/><path data-name="Line 25" d="M355.824 473.478l9.849-1.41"/><path data-name="Line 26" d="M358.182 485.181l9.604-2.6"/><path data-name="Line 27" d="M361.95 496.508l9.216-3.751"/><path data-name="Line 28" d="M367.07 507.292l8.69-4.846"/><path data-name="Line 29" d="M373.465 517.371l8.035-5.869"/><path data-name="Line 30" d="M381.042 526.596l7.26-6.804"/><path data-name="Line 31" d="M389.686 534.829l6.376-7.638"/><path data-name="Line 32" d="M399.269 541.947l5.398-8.358"/><path data-name="Line 33" d="M409.649 547.844l4.339-8.954"/><path data-name="Line 34" d="M417.608 551.678l3.215-9.416"/><path data-name="Line 35" stroke-width="4" d="M548.807 483.698l-11.279-2.782"/><path data-name="Line 36" d="M488.278 368.827l-3.542 9.298"/><path data-name="Line 37" d="M499.175 373.702l-4.649 8.797"/><path data-name="Line 38" d="M509.395 379.869l-5.686 8.165"/><path data-name="Line 39" d="M518.789 387.236l-6.639 7.411"/><path data-name="Line 40" d="M527.215 395.693l-7.493 6.547"/><path data-name="Line 41" d="M534.547 405.114l-8.235 5.585"/><path data-name="Line 42" d="M540.676 415.357l-8.854 4.54"/><path data-name="Line 43" d="M545.511 426.272l-9.341 3.427"/><path data-name="Line 44" d="M548.98 437.694l-9.689 2.263"/><path data-name="Line 45" d="M551.031 449.454l-9.893 1.065"/><path data-name="Line 46" d="M551.634 461.376l-9.949-.148"/><path data-name="Line 47" d="M550.779 473.283l-9.856-1.36"/><path data-name="Line 48" d="M548.479 484.997l-9.617-2.551"/><path data-name="Line 49" d="M544.77 496.344l-9.235-3.704"/><path data-name="Line 50" d="M539.704 507.154l-8.714-4.802"/><path data-name="Line 51" d="M533.36 517.265l-8.064-5.828"/><path data-name="Line 52" d="M525.83 526.528l-7.294-6.767"/><path data-name="Line 53" d="M517.228 534.805l-6.415-7.606"/><path data-name="Line 54" d="M507.681 541.972l-5.44-8.331"/><path data-name="Line 55" d="M497.331 547.922l-4.384-8.932"/><path data-name="Line 56" d="M486.334 552.565l-3.263-9.399"/><path data-name="Line 57" d="M474.853 555.834l-2.093-9.727"/><path data-name="Line 58" d="M463.059 557.68l-.892-9.91"/><path data-name="Line 59" d="M451.128 558.074l.322-9.944"/><path data-name="Line 60" d="M442.299 557.767l1.532-9.831"/></g><path data-name="Path 22179" d="M498.084 336.884c-3.654-.882-7.311-1.753-10.984-2.559l-11.039-2.334c-1.86-.4-3.638-.742-5.564-1.194a6.277 6.277 0 01-4.323-4.426 6.435 6.435 0 011.641-6.115 6.56 6.56 0 016.16-1.747c3.646.916 7.288 1.846 10.914 2.84l10.859 3.068c1.817.525 3.6 1 5.444 1.565a5.792 5.792 0 013.708 4.236 5.647 5.647 0 01-1.59 5.25 5.547 5.547 0 01-5.226 1.416zm0 0a5.5 5.5 0 005.169-1.473 5.382 5.382 0 001.361-5.124 5.223 5.223 0 00-3.625-3.672c-1.786-.412-3.666-.781-5.494-1.173l-11.04-2.333a520.34 520.34 0 01-10.983-2.561 4.491 4.491 0 00-4.235 1.142 4.591 4.591 0 00-1.31 4.259 4.737 4.737 0 003.009 3.482c1.7.523 3.59 1.029 5.375 1.544l10.859 3.067a548.3 548.3 0 0010.914 2.842z" fill="#9e1d10"/><path data-name="Path 22180" d="M488.668 346.312c-2.48-.592-4.963-1.174-7.462-1.69l-7.518-1.466a5.1 5.1 0 01-1.988-.739 4.749 4.749 0 01-2.124-3.785 5.044 5.044 0 01.087-1.149l.192-.941a15.942 15.942 0 01.492-1.991 4.768 4.768 0 011.345-1.937 5.088 5.088 0 014.489-1.1c2.472.626 4.941 1.267 7.393 1.971l7.337 2.2a5.123 5.123 0 011.875.9 4.424 4.424 0 011.276 1.636 4.256 4.256 0 01.379 1.993 8.668 8.668 0 01-.43 1.911 17.748 17.748 0 01-.566 1.841 4.207 4.207 0 01-1.168 1.529 4.072 4.072 0 01-3.609.817zm0 0a4.033 4.033 0 003.557-.881 3.686 3.686 0 001.055-1.536 17.343 17.343 0 00.444-1.844 6.733 6.733 0 00.249-1.841 3.7 3.7 0 00-3.315-3.5l-7.518-1.464c-2.5-.517-4.982-1.1-7.462-1.693a3.018 3.018 0 00-2.677.6 3.124 3.124 0 00-.877 1.128 15.537 15.537 0 00-.518 1.694l-.265.917a3.409 3.409 0 00-.136.745 3.206 3.206 0 00.265 1.513 3.5 3.5 0 002.468 1.992l7.338 2.2c2.452.701 4.924 1.341 7.392 1.97z" fill="#9e1d10"/><path data-name="Path 22181" d="M349.714 434.654a106.112 106.112 0 00-1.758 41.312 104.351 104.351 0 1019.411-78.7 106.08 106.08 0 00-17.653 37.388zm-.408-.1a106.341 106.341 0 11-1.926 41.5 106.6 106.6 0 011.926-41.501z" fill="#f27c00"/><path data-name="Path 22182" d="M352.866 434.654a106.092 106.092 0 00-1.757 41.312 104.347 104.347 0 1019.41-78.7 106.114 106.114 0 00-17.653 37.388zm-.408-.1a106.335 106.335 0 11-1.926 41.5 106.589 106.589 0 011.926-41.501z" fill="#9e1d10"/><path data-name="Path 22183" d="M538.308 382.145a117.555 117.555 0 01-136.422 185.77 117.629 117.629 0 01-67.923-113.487 117.589 117.589 0 01204.345-72.283zm-.311.283a115.164 115.164 0 1023.2 38.566A115.467 115.467 0 00538 382.428z" fill="#f27c00"/><path data-name="Path 22184" d="M568.14 489.836a121.8 121.8 0 01-238.59-10.179 121.871 121.871 0 0158.407-123.9A121.834 121.834 0 01568.14 489.836zm-.408-.1a119.4 119.4 0 10-19.808 42.248 119.712 119.712 0 0019.808-42.249z" fill="#9e1d10"/><g data-name="Group 63273"><g data-name="Group 63271" fill="#9e1d10"><path data-name="Path 22185" d="M357.859 366.45a4.033 4.033 0 01-4.717.882 9.783 9.783 0 01-2-1.6l-1.891-1.725-7.662-6.795-7.663-6.8-1.891-1.725-.945-.863a5.089 5.089 0 01-1.714-4.25 4.648 4.648 0 011.357-2.894 5.031 5.031 0 015.89-1.048 5.13 5.13 0 011.279.926l.9.9 1.81 1.809 7.14 7.343 7.139 7.343 1.809 1.81a10.947 10.947 0 011.707 1.912 4.029 4.029 0 01-.548 4.775zm0 0a3.987 3.987 0 00.482-4.724 9.463 9.463 0 00-1.76-1.825l-1.891-1.725-7.665-6.793-7.662-6.794-1.891-1.725-.945-.862a3.757 3.757 0 00-.8-.55 2.98 2.98 0 00-3.5.7 2.77 2.77 0 00-.4 3.455 3.715 3.715 0 00.625.788l.9.9 1.81 1.809 7.14 7.342 7.141 7.341 1.81 1.81a8.575 8.575 0 001.917 1.655 3.993 3.993 0 004.689-.802z"/><path data-name="Path 22186" d="M337.149 395.21a4.033 4.033 0 01-3.857 1.17 8.139 8.139 0 01-1.912-.878l-1.853-1-7.442-3.951-14.962-7.759-14.963-7.756-7.443-3.95-.926-.5a5.263 5.263 0 01-1.059-.736 4.964 4.964 0 01-1.419-2.2 5 5 0 015.964-6.38 5.113 5.113 0 011.231.478l.922.51 1.843 1.02 7.34 4.136 14.6 8.421 14.6 8.423 7.339 4.138a9.288 9.288 0 011.785 1.121 3.96 3.96 0 011.12 1.769 4.025 4.025 0 01-.908 3.924zm0 0a4.007 4.007 0 00.869-3.914 3.925 3.925 0 00-1.122-1.737 9.224 9.224 0 00-1.784-1.094l-7.442-3.95-14.964-7.756L297.742 369l-7.441-3.952-1.853-1-.926-.5a3.105 3.105 0 00-.729-.273 2.97 2.97 0 00-3.515 3.756 2.917 2.917 0 00.824 1.3 3.154 3.154 0 00.663.467l.922.51 7.339 4.139 14.6 8.422 14.6 8.42 7.339 4.137 1.843 1.02a8.147 8.147 0 001.894.892 4.014 4.014 0 003.847-1.128z"/><path data-name="Path 22187" d="M324.49 428.232a3.992 3.992 0 01-3.521 1.251c-.43-.069-.842-.187-1.263-.28l-5.044-1.119-10.125-2.078-10.126-2.076-1.262-.278-.63-.138a5.691 5.691 0 01-.744-.218 4.9 4.9 0 01-2.453-2 4.976 4.976 0 013.4-7.539 5.171 5.171 0 011.619-.006c.583.105.894.211 1.342.316l4.993 1.324 9.947 2.812 9.946 2.814c.832.242 1.664.4 2.495.712a4.172 4.172 0 011.943 1.7 4.039 4.039 0 01-.517 4.803zm0 0a4 4 0 00.453-4.767 3.831 3.831 0 00-1.943-1.572c-.794-.258-1.669-.389-2.5-.591l-10.126-2.074-10.126-2.077-5.044-1.12c-.39-.087-.907-.225-1.173-.261a3.093 3.093 0 00-.951.019 3.012 3.012 0 00-1.64.911 2.975 2.975 0 00-.4 3.545 3.108 3.108 0 001.431 1.264 3.455 3.455 0 00.488.167l.623.167 1.248.334 9.947 2.813 9.947 2.81 4.993 1.326c.417.1.833.224 1.253.3a3.965 3.965 0 001.277 0 4.025 4.025 0 002.243-1.194z"/><path data-name="Path 22188" d="M320.534 463.375a4 4 0 01-1.767 1.108 7.914 7.914 0 01-2.093.2l-4.214.116-8.427.3-16.848.764-16.848.765-4.213.155-2.106.077-1.054.039a5.315 5.315 0 01-1.276-.1 5 5 0 01-.421-9.7 5.118 5.118 0 011.309-.205l1.057-.02 4.215-.077 8.431-.087 16.865-.008 16.866-.006 4.215-.038 2.108-.019a10.66 10.66 0 012.111.079 4 4 0 012.09 6.656zm0 0a3.963 3.963 0 00-2.106-6.578 9.246 9.246 0 00-2.092-.038l-2.107.078-4.213.155-16.848.767-16.849.764-8.427.3-4.213.116-1.051.03a3.027 3.027 0 00-.765.129 2.959 2.959 0 00.236 5.726 3.361 3.361 0 00.819.067l1.054-.009 2.108-.019 4.215-.039 16.866-.007 16.866-.009 8.431-.087 4.215-.077a7.855 7.855 0 002.089-.179 3.989 3.989 0 001.772-1.09z"/><path data-name="Path 22189" d="M325.891 498.356a4.284 4.284 0 01-2.206 1.243l-2.456.74-4.894 1.543-9.742 3.244-9.77 3.248a4.929 4.929 0 01-5.513-2.182 5 5 0 01.62-5.984 4.982 4.982 0 011.28-.983 6.853 6.853 0 011.406-.518l2.467-.7 4.954-1.34 9.953-2.519 9.961-2.512a4.1 4.1 0 014.489 1.947 4.014 4.014 0 01-.549 4.773zm0 0a3.974 3.974 0 00.48-4.734 3.872 3.872 0 00-4.346-1.7l-9.738 3.24-9.741 3.246-4.894 1.542-2.457.74a4.8 4.8 0 00-.993.371 3.058 3.058 0 00-.737.583 2.957 2.957 0 00-.416 3.521 3.046 3.046 0 003.323 1.465l9.928-2.505 9.953-2.52 4.954-1.34 2.467-.7a4.269 4.269 0 002.217-1.209z"/><path data-name="Path 22190" d="M340.057 530.8a7.55 7.55 0 01-1.7 1.219l-1.791 1.1-3.583 2.2-7.132 4.463-14.178 9.066-14.176 9.067-3.563 2.236-.89.558a5.4 5.4 0 01-1.143.559 4.843 4.843 0 01-2.6.16 5.011 5.011 0 01-2.643-8.313 4.9 4.9 0 011.027-.841l.909-.549 1.8-1.085 3.6-2.168 7.241-4.282 14.57-8.42 14.571-8.419 3.623-2.135a9.858 9.858 0 011.873-.978 4.084 4.084 0 012.1-.094 4 4 0 012.078 6.651zm0 0a3.963 3.963 0 00-2.094-6.573 3.784 3.784 0 00-2.048.129 9.783 9.783 0 00-1.817 1.016l-3.563 2.236-14.176 9.069-14.178 9.068-7.132 4.462-3.583 2.2-1.792 1.1-.886.547a3.074 3.074 0 00-.591.491 2.952 2.952 0 001.525 4.907 3.045 3.045 0 001.554-.063 3.277 3.277 0 00.75-.345l.906-.534 3.624-2.136 14.571-8.42 14.569-8.422 7.241-4.281 3.6-2.169 1.8-1.085a7.532 7.532 0 001.72-1.197z"/></g><g data-name="Group 63272"><path data-name="Path 22191" d="M362.155 557.965c-2.348 2.487-4.689 4.981-6.981 7.521l-6.814 7.679-3.4 3.845-1.7 1.922a4.879 4.879 0 01-8.007-.51 5.039 5.039 0 01.612-5.988 411.355 411.355 0 017.2-7.327l7.362-7.16 3.686-3.575 1.843-1.787a4.51 4.51 0 012.261-1.338 4.108 4.108 0 014.491 1.942 4.027 4.027 0 01-.553 4.776zm0 0a3.986 3.986 0 00.476-4.735 3.836 3.836 0 00-6.345-.322l-1.7 1.922-3.4 3.845-6.811 7.679a440.38 440.38 0 01-6.977 7.512 2.974 2.974 0 00-.41 3.524 3.052 3.052 0 003.327 1.463 3.175 3.175 0 00.923-.364 3.96 3.96 0 00.841-.682l1.842-1.788 3.684-3.575 7.36-7.159a451.203 451.203 0 007.19-7.32z" fill="#9e1d10"/></g></g></g></g></svg>