<svg xmlns="http://www.w3.org/2000/svg" width="185" height="59"><g transform="translate(.001 .214)"><rect data-name="Rectangle 56" width="185" height="59" rx="5" transform="translate(-.001 -.214)"/><g data-name="playstore"><g data-name="Group 21" fill="#32bbff"><path data-name="Path 666" d="M39.334 24.491c-3.802-2.126-9.904-5.537-19.369-10.837a2.282 2.282 0 00-2.007-.265l16.238 16.239z"/><path data-name="Path 667" d="M17.958 13.389a2.333 2.333 0 00-.345.148 2.284 2.284 0 00-1.215 2.03V43.69a2.283 2.283 0 001.215 2.03 2.362 2.362 0 00.345.148l16.24-16.24z"/><path data-name="Path 668" d="M34.201 29.628l-16.24 16.24a2.259 2.259 0 002.007-.262c9.179-5.14 15.212-8.514 19.058-10.659l.316-.177z"/></g><path data-name="Path 669" d="M16.397 29.628v14.061a2.283 2.283 0 001.215 2.03 2.368 2.368 0 00.345.148l16.24-16.24z" fill="#2c9fd9"/><path data-name="Path 670" d="M19.964 13.65a2.289 2.289 0 00-2.352-.114l16.339 16.338 5.383-5.383c-3.803-2.126-9.905-5.541-19.37-10.841z" fill="#29cc5e"/><path data-name="Path 671" d="M33.951 29.381L17.612 45.719a2.274 2.274 0 002.352-.114c9.179-5.14 15.213-8.514 19.058-10.659l.316-.177z" fill="#d93f21"/><path data-name="Path 672" d="M46.114 29.627a2.277 2.277 0 00-1.172-2s-1.457-.813-5.924-3.312l-5.317 5.312 5.319 5.319c4.418-2.481 5.919-3.317 5.919-3.317a2.277 2.277 0 001.175-2.002z" fill="#ffd500"/><path data-name="Path 673" d="M44.942 31.63a2.277 2.277 0 001.172-2H33.701l5.319 5.319c4.421-2.483 5.922-3.319 5.922-3.319z" fill="#fa0"/></g><g data-name="Group 22" fill="#fff" font-size="13"><text data-name="Get the app on" transform="translate(53.702 24.13)" font-family="Poppins-Regular, Poppins"><tspan x="0" y="0">Get the app on</tspan></text><text data-name="Google Playstore" transform="translate(53.702 44.051)" font-family="Poppins-Bold, Poppins" font-weight="700"><tspan x="0" y="0">Google Playstore</tspan></text></g></g></svg>