<svg xmlns="http://www.w3.org/2000/svg" width="52.66" height="55.113"><path data-name="Path 20964" d="M8.962 5.398v2h3.361v-2A4.695 4.695 0 0117.011.672H13.65a4.695 4.695 0 00-4.688 4.726z" fill="#d4e1f4"/><path data-name="Path 20965" d="M12.322 49.715v-5.356h-3.36v5.356a4.695 4.695 0 004.689 4.726h3.361a4.695 4.695 0 01-4.689-4.726z" fill="#d4e1f4"/><path data-name="Path 20966" d="M32.555 0h-18.9A5.373 5.373 0 008.29 5.4v7.148h1.344V8.513h27v19.268h1.344V5.4A5.422 5.422 0 0032.555 0zm4.075 7.169h-27V5.4a4.027 4.027 0 014.017-4.054h18.9A4.077 4.077 0 0136.63 5.4z" fill="#3a7bbf"/><path data-name="Path 20967" d="M36.63 49.715a4.077 4.077 0 01-4.075 4.054h-18.9a4.027 4.027 0 01-4.017-4.054v-4.908h22.628l-.336-1.344H9.634V27.557H8.29v22.158a5.373 5.373 0 005.361 5.4h18.9a5.423 5.423 0 005.419-5.4v-1.658h-1.34z" fill="#3a7bbf"/><path data-name="Path 20968" d="M21.249 49.06a1.854 1.854 0 101.854-1.854 1.854 1.854 0 00-1.854 1.854zm2.364 0a.509.509 0 11-.509-.509.509.509 0 01.509.509z" fill="#0635c9"/><path data-name="Path 20969" d="M11.99 4.145h-.224a.672.672 0 100 1.344h.224a.672.672 0 100-1.344z" fill="#3a7bbf"/><path data-name="Path 20970" d="M24.532 4.145H14.226a.672.672 0 100 1.344h10.306a.672.672 0 100-1.344z" fill="#3a7bbf"/><g data-name="Group 36248" fill="#f39200"><path data-name="Path 20971" d="M4.097 18.035h5.126a.672.672 0 000-1.344H4.097a.672.672 0 000 1.344z"/><path data-name="Path 20972" d="M18.427 16.691H12.02a.672.672 0 000 1.344h6.407a.672.672 0 000-1.344z"/><path data-name="Path 20973" d="M15.022 20.275a.672.672 0 00-.672-.672H4.097a.672.672 0 100 1.344H14.35a.672.672 0 00.672-.672z"/><path data-name="Path 20974" d="M18.427 19.603h-1.282a.672.672 0 000 1.344h1.282a.672.672 0 000-1.344z"/><path data-name="Path 20975" d="M4.097 22.516a.672.672 0 000 1.344H9.69a.672.672 0 000-1.344z"/><path data-name="Path 20976" d="M12.485 23.86h5.942a.672.672 0 100-1.344h-5.942a.672.672 0 100 1.344z"/><path data-name="Path 20977" d="M19.531 11.874h-3.624a.672.672 0 100 1.344h3.627a1.638 1.638 0 011.638 1.638v10.373a1.655 1.655 0 01-1.655 1.655h-1.993a3.183 3.183 0 00-2.654 1.19 6.343 6.343 0 00-.817 4.4 4.749 4.749 0 01-2.161-4.486 1.049 1.049 0 00-1.029-1.107H2.987a1.645 1.645 0 01-1.643-1.655V14.864a1.646 1.646 0 011.646-1.646h8.21a.672.672 0 100-1.344H2.99A2.99 2.99 0 000 14.864v10.371a2.989 2.989 0 002.987 2.994h7.556a6.035 6.035 0 004.209 6.042.666.666 0 00.175.024.674.674 0 00.591-.351.691.691 0 00.058-.5c-.215-.883-.56-3.376.356-4.545a1.883 1.883 0 011.593-.671h2.01a2.982 2.982 0 002.982-2.982V14.859a2.985 2.985 0 00-2.986-2.985z"/><path data-name="Path 20978" d="M49.451 27.928a3.118 3.118 0 00-2.05-2.066 3 3 0 00-1.283-.123 3.123 3.123 0 00-2.187 1.286 3.118 3.118 0 00-5.531.56 3.113 3.113 0 00-4.223.634l-2.882-9.409a3.12 3.12 0 10-5.967 1.828l2.9 9.472a.672.672 0 101.285-.394l-2.9-9.472a1.788 1.788 0 01.457-1.8 1.367 1.367 0 01.189-.16 1.782 1.782 0 012.75.916l5.306 17.321a.672.672 0 001.285-.394l-1.673-5.462a1.778 1.778 0 013.4-1.04L40 35.087a.672.672 0 001.285-.394l-1.673-5.462a1.778 1.778 0 013.4-1.04l1.673 5.462a.672.672 0 001.285-.394l-1.195-3.9a1.788 1.788 0 01.464-1.8 1.34 1.34 0 01.19-.16 1.787 1.787 0 011.876-.125 1.763 1.763 0 01.865 1.048l2.82 9.207a7.5 7.5 0 01-4.966 9.353l-3.121.956a7.5 7.5 0 01-9.353-4.967l-2.65-8.656a.672.672 0 00-1.285.394l1.059 3.456a4.478 4.478 0 00-5.119 2.089.672.672 0 00.225.9l7.942 5.023a8.826 8.826 0 009.577 3.047l3.121-.956a8.843 8.843 0 005.859-11.032zM27.089 40.295a3.134 3.134 0 013.9-.647l.2.114 1.073 3.5c.039.129.082.256.127.381z"/></g></svg>