<svg xmlns="http://www.w3.org/2000/svg" width="64.557" height="37.969"><path data-name="Path 20987" d="M22.034 13.632h5.01a.915.915 0 100-1.83h-5.01a.915.915 0 100 1.83z" fill="#0635c9"/><path data-name="Path 20988" d="M22.034 9.013h5.01a.915.915 0 000-1.83h-5.01a.915.915 0 100 1.83z" fill="#0635c9"/><path data-name="Path 20989" d="M63.99 14.566a1.421 1.421 0 00.378-1.845l-3.9-6.562a1.263 1.263 0 00-1.766-.528l-4.159 1.914a16.271 16.271 0 00-2.982-1.726l-.415-4.57a.92.92 0 00-.021-.127 1.4 1.4 0 00-1.334-1.124h-7.619a1.336 1.336 0 00-1.353 1.208l-.417 4.612a14 14 0 00-3.222 1.905.915.915 0 101.159 1.416 12.6 12.6 0 013.04-1.751l.245-.1a.915.915 0 00.551-.759l.425-4.7h6.761l.427 4.7a.915.915 0 00.551.758l.245.1a14.6 14.6 0 013.086 1.787l.213.16a.915.915 0 00.932.1l4.3-1.977 3.483 5.858-3.891 2.766a.915.915 0 00-.376.875l.038.27a9.519 9.519 0 010 3.511l-.038.26a.915.915 0 00.351.858l3.658 2.787-3.407 5.865-4.306-1.981a.916.916 0 00-.962.123l-.216.177a12.615 12.615 0 01-3.041 1.752l-.244.1a.915.915 0 00-.551.758l-.426 4.7h-6.761l-.427-4.7a.915.915 0 00-.551-.758l-.244-.1a14.529 14.529 0 01-.8-.372.915.915 0 10-.816 1.638c.208.1.423.205.642.3l.416 4.57a.909.909 0 00.021.127A1.4 1.4 0 0042 37.964h7.619a1.336 1.336 0 001.352-1.208l.418-4.612a14.5 14.5 0 002.991-1.722l4.168 1.918.047.02a1.4 1.4 0 001.7-.552l3.809-6.558a1.414 1.414 0 00-.378-1.857l-3.5-2.67a10.664 10.664 0 000-3.476l3.755-2.67z" fill="#f39200"/><path data-name="Path 20990" d="M47.508 27.263a.915.915 0 00.326 1.8 10.161 10.161 0 005.979-3.46 10.315 10.315 0 002.371-6.619 10.3 10.3 0 00-16.53-8.147.915.915 0 101.113 1.452 8.414 8.414 0 015.168-1.723 8.423 8.423 0 011.573 16.7z" fill="#f39200"/><path data-name="Path 20991" d="M45.935 13.867a5.144 5.144 0 00-2.724.767 22.924 22.924 0 00-2.04-3.317 21.538 21.538 0 00-10.857-7.8l.193-1.859a.915.915 0 00-.91-1.009H18.989a.915.915 0 00-.91 1.009l.193 1.86a21.521 21.521 0 00-10.858 7.823 23.851 23.851 0 00-4.587 13.373H.915a.915.915 0 00-.915.915v5.4a.915.915 0 00.915.915h46.756a.915.915 0 00.915-.915v-5.4a.915.915 0 00-.915-.915h-1.912q-.009-.307-.026-.613c.067 0 .134.007.2.007a5.118 5.118 0 100-10.236zM16.4 6.201a18.257 18.257 0 013.1-1.137.915.915 0 00.675-.978L20 2.474h8.578l-.167 1.612a.915.915 0 00.675.979 18.345 18.345 0 013.1 1.135v2.218a11.784 11.784 0 01-7.663 11.038 11.752 11.752 0 01-8.131-11.2zm-7.51 6.223a20.249 20.249 0 015.681-5.233v1.065a13.578 13.578 0 009.4 12.943l.289.094a.913.913 0 00.581 0 13.614 13.614 0 009.183-12.871V7.183a20.228 20.228 0 015.681 5.219 21.937 21.937 0 014.228 12.3H4.658a22.008 22.008 0 014.228-12.285zm37.87 14.114v3.573H1.83v-3.573zm-.821-4.266a3.51 3.51 0 01-.375-.022 24.035 24.035 0 00-1.58-5.932 3.3 3.3 0 111.955 5.954z" fill="#3a7bbf"/><path data-name="Path 20992" d="M14.707 10.201a13.726 13.726 0 01-.14-1.944V7.192a20.249 20.249 0 00-5.681 5.233A22.008 22.008 0 004.658 24.71h3.921a22.008 22.008 0 014.228-12.286 20.654 20.654 0 011.9-2.223z" fill="#d4e1f4"/><path data-name="Path 20993" d="M27.887 21.199l.289.094a.913.913 0 00.581 0 13.615 13.615 0 009.063-11.079 19.987 19.987 0 00-3.8-3.022v1.231a13.615 13.615 0 01-7.6 12.209 13.769 13.769 0 001.467.567z" fill="#d4e1f4"/></svg>